<?xml version="1.0" encoding="UTF-8"?>
<svg id="Layer_2" data-name="Layer 2" xmlns="http://www.w3.org/2000/svg" viewBox="0 0 824.79 903.75">
  <defs>
    <style>
      .cls-1 {
        fill: #231f20;
      }
    </style>
  </defs>
  <g id="Layer_1-2" data-name="Layer 1">
    <g>
      <path class="cls-1" d="M367.95,537.31c-4.07,14.19-12.94,28.7-1.34,45.38,2.66,3.83,1.61,10.73,1.18,16.13-3.52,44.18,10.19,82.91,35.85,118.35,22.12,30.55,41.87,62.27,38.57,104.38-3.75,1.69-9.02,4.07-14.55,6.57,.84,1.47,1.15,2.87,1.89,3.15,7.02,2.64,15.15,3.73,20.8,8.08,3.82,2.94,6.46,10.92,5.37,15.67-1,4.38-7.66,10.6-11.86,10.62-29.01,.15-58.1-.15-87.03-2.24-19.93-1.44-28.96-13.94-31.9-34.33-2.16-15-7.31-32.33-17.22-42.9-22.26-23.74-32.19-50.57-34.38-82.07-1.23-17.74-5.14-35.3-8.12-54.77h42.33c-.03-.62-.06-1.24-.08-1.86-20.55-5.02-41.1-10.03-59.92-14.63-13.38,15.38-25.99,29.86-38.56,44.37-1.8,2.08-3.84,4.1-5.05,6.51-16.59,32.89-33.01,65.86-49.56,98.76-14.32,28.46-11.68,44.34,11.35,67.94,2.34,2.4,4.19,5.3,6.16,7.83q-12.44,14.29-49.42-17.47c2.36,4.81,3.28,6.43,3.97,8.15,3.21,7.94,6.36,15.91,9.53,23.87-8.01,2.88-15.96,7.93-24.05,8.18-17.18,.54-34.6-.28-51.64-2.61-31.17-4.28-52.33-26.09-57.22-57.02-7.73-48.89-1.56-93.81,28.55-135.94,12.34-17.27,15.99-41.81,19.91-63.71,3.12-17.43,.34-35.87,.75-53.86,.22-9.63-1.13-20.65,2.94-28.63,22.33-43.75,43.3-88.68,70.82-129.05,10.83-15.89,36.44-25.74,57.07-30.14,52.31-11.17,84.17-39.69,98.39-91.47,12.53-45.62,43.38-73.53,88.52-91.2,32.17-12.6,63.26-32.94,88.75-56.42,35.22-32.45,65.03-70.83,96.6-107.16,45.36-52.2,115.01-42.43,143,18.87-16.15,.73-33.07,1.5-49.98,2.26,.11,1.64,.23,3.29,.34,4.93,11.9,0,24-1.3,35.64,.43,8.49,1.27,19.89,4.25,23.93,10.43,15.25,23.35,28.18,48.24,41.5,72.81,1.29,2.37-.71,6.52-.57,5.52-12.84-1.63-24.44-3.24-36.06-4.55-16.14-1.82-32.41-2.77-48.41-5.41-7.29-1.2-13.91-6.04-21.11-8.39-16.93-5.52-34.57,.86-37.12,12.95-3.49,16.51,10.42,33.99,30.38,36.48-3.16-4.41-6.18-7.76-8.18-11.64-2.77-5.37-4.77-11.13-7.1-16.72,6.99-.96,16.32-5.25,20.55-2.28,15.36,10.78,31.34,6.88,47.7,6.61,13.84-.22,27.88,1.66,41.36,4.71,1.6,.36,.22,13.91,.22,20.41,2.9,3.44,10.07,7.99,10.26,12.81,1.09,27.85,.53,55.77,.53,83.03,.9-1.62,3.31-5.94,7.19-12.93,19.04,36.08,17.58,69.5,8.97,105.29,4.01-1.72,6.71-2.88,9.91-4.25,11.16,41.46,22.31,82.85,33.45,124.24,1.66-.09,3.33-.19,4.99-.28-2.69-32.54-5.39-65.09-8.08-97.63-1.85,.02-3.71,.04-5.56,.06-1.06,4.83-2.13,9.67-3.19,14.5-1.57,.07-3.14,.14-4.71,.21-1.75-16.86-5.98-33.9-4.8-50.55,4.73-66.3,5.35-66.26-26.09-118.23,27.64,9.56,46.41,38.54,49.95,71.43,3.45,32.03,8.1,64.14,15.33,95.5,9.14,39.66,5.18,77.76-3.39,116.86-4.57,20.86-6.76,44.55-1.55,64.79,14.32,55.69,9.54,108.37-15.52,159.2-17.05,34.57-21.18,69.49-10.35,106.39,1.74,5.93,2.79,12.16,3.3,18.32,2.08,25.08-5.24,31.41-32.21,27.73-.45-7.24-.85-14.62-1.41-21.99-.1-1.31-.86-2.57-.43-1.36-4.4,8.13-7.37,22.06-15.38,26.18-9.16,4.7-24.29,3.89-34.03-.58-7.76-3.56-13.58-15.72-15.72-25.1-.93-4.08,9.52-10.76,16.84-18.37-6.61-12.62-20.86-8.97-35.18-5.41-14.62,3.63-28.8,5.66-36.85-11.12,.61-1.46,.7-2.32,1.17-2.69,41.39-32.77,46-49.34,28.16-101.22-5.39-15.67-10.77-31.34-16.07-47.05-11.46-33.96-11.29-67.79,.52-101.72,3.05-8.76,4.35-18.12,7.79-33-8.38,6.53-11.7,9.28-15.19,11.8-18.77,13.55-36.78,28.43-56.72,39.97-10.16,5.88-15.62,10.15-15.59,22.77,.05,21.37-.65,43.07-4.35,64.05-10.25,58.06-.99,114.1,13.2,170.14,7.53,29.74-2.92,41.19-32.42,38.46-2.29-.21-4.69,.98-6.99,.81-12.19-.89-25.67,.65-35.89-4.37-4-1.97-.65-18.85-.65-28.33-3.57,4.75-7.71,12.5-13.92,17.85-5.87,5.05-13.82,10.11-21.05,10.42-6.18,.26-14.74-4.84-18.24-10.18-2.24-3.43,2.96-11.57,4.5-17.67,2.37-9.34,7.23-19.11,6.07-28.05-2.19-16.92-6.09-34.13-12.59-49.85-10.7-25.88-21.82-52.08-36.78-75.59-24.65-38.75-43.85-77.09-35.67-125.66,2.84-16.83-5.68-35.58-9.03-53.55ZM714.28,197.4c-4.02-3.79-7.45-9.4-12.19-10.93-6.81-2.2-14.59-1.44-21.95-1.94-4.84-1.67-13.48-5.44-13.91-4.66-3.53,6.36-5.52,13.57-8.27,21.33-20.61,.57-30.93,19.04-19.6,41.79,27.73-13.08,56.31-22.09,89.31,4.76-3.18-16.74-4.65-26.6-7.06-36.22-1.24-4.93-4.16-9.44-6.33-14.13ZM73.9,627.54c6.71-23.47,12.47-43.62,18.23-63.77,10.94,28.96-10.35,65.13,32.9,80.86-19.78,14.55-31,32.3-22.32,55.78,2.67,7.21,11.74,12.05,17.88,17.97,.45-.85,.91-1.69,1.36-2.54-4.82-9.75-9.65-19.5-12.95-26.17,15.12-3.47,28.47-3.19,36.36-9.61,4.71-3.83,.86-18.18,.86-31.32,45.39-29.99,57.93-74.87,39.29-130.58-5.79-17.31-6.09-35.38,6.44-52.57,4.69,18.08,8.91,34.35,13.13,50.61,1.35-.39,2.69-.79,4.04-1.18,.55-7.14,1.09-14.29,1.94-25.37,5.59,9.03,8.83,14.91,12.67,20.36,12.76,18.13,30.35,28.1,52.48,29.01,20.52,.84,27.76-6.59,27.08-27.1-.42-12.58-1.6-25.13-2.69-41.5,11.84,14.23,20.64,24.82,29.45,35.41,1.89-.86,3.78-1.72,5.67-2.58-36.5-42.59-13.04-95.29-30.99-143.75,16.18,13.69,28.38,25.82,42.41,35.25,9.56,6.43,13.51,12.25,14.14,24.34,.67,12.9,7.48,25.47,11.61,38.19,1.79-.16,3.59-.31,5.38-.47-7.53-26.06-.72-48.41,21.28-69.25-38.11,1.69-62.54-11.1-76.82-40.4-12.04-24.71-13.77-49.63,.08-75.3,5.45,16.22,10.34,30.76,15.23,45.3-3.14-67.69,44.69-112.69,124.68-90.9-10.2-6.32-20.4-12.64-35.14-21.76,19.97-7.82,35.97-15.83,52.91-20.31,24.55-6.49,38.44-21.43,46.23-44.95,2.69-8.14,10.88-14.46,16.32-21.31-.57-.13-5.05-1.13-9.52-2.18,.33-4.76,.66-9.52,.99-14.28-1.68-1.18-3.36-2.36-5.04-3.53-13.3,12.12-26.6,24.25-42.4,38.65,9.24,2.43,12.41,3.27,15.58,4.1,.33,1.77,.66,3.55,.99,5.32-13.46,6.31-26.79,12.89-40.4,18.85-15.76,6.9-32.17,12.44-47.4,20.29-4.86,2.5-6.89,10.5-11.95,18.84-88.75,17.1-115.51,81.57-115.28,167.01-3.46-7.8-6.92-15.6-10.41-23.37-37.14,32.8-37.55,31.53-92.52,49.51-18.94,6.19-35.39,20.23-52.62,31.24-3.1,1.99-6.74,9.4-6.27,9.8,12.65,10.82,.23,17.82-4.93,22.87-46.42,45.47-54.13,102.04-47.96,166.47Zm408.3-254.15c-.79-1.08-.38-.52,.03,.03,5.93-5.05,11.87-10.1,20.11-17.12,6.84,13.8,13.7,25.61,18.73,38.16,16.82,42.01-5.04,80.84-9.93,121.51,4.1-7.61,8.21-15.21,14.1-26.13,16.47,34.59,31.7,66.57,48.31,101.47,10.14-8.35,22.26-14.04,26.79-23.4,3.78-7.82-1.32-19.93-2.49-30.16,69.95-4.86,107.71-47.6,96.71-145.59-5.75,1.71-11.3,3.37-16.53,4.93,5.5-15.17,10.71-29.53,15.92-43.9-1.7-.73-3.39-1.47-5.09-2.2-8.79,7.37-17.58,14.75-30.28,25.4,9.89-2.03,14.9-3.05,21.09-4.32-12.07,30.63-61.2,20.19-62.51,61.6,9.44-1.01,17.52-1.88,30.02-3.23-11.35,8.3-18.83,13.76-28.7,20.98,10.43,1.33,17.54,2.24,23.02,2.94-18.21,15.57-36.38,31.12-54.56,46.66-1.89-.67-3.78-1.33-5.67-2,22.05-23.61,14.25-39.4-9.55-51.98,7.67,.73,15.35,1.47,27.95,2.67-13.04-15.02-23.05-26.54-36.28-41.79,13.2,5.87,21.87,9.73,30.54,13.59,1.28-1.82,2.55-3.64,3.83-5.47-12.04-10.58-24.19-21.04-36.1-31.77-10.63-9.59-30.01-19.85-29.64-29.18,.83-20.99-14.67-29.76-19.9-43.17-9.79,20.12-19.64,40.37-29.91,61.47Zm173.1-63.78c7.13-1.29,13.07-2.32,18.99-3.45,5.18-.99,10.32-2.25,15.52-3.11,19.58-3.25,33.1-16.77,31.51-33.28-1.87-19.42-15.95-26.6-32.99-27.29-10.66-.44-22.21,.9-32.06,4.77-23.09,9.07-26.92,27.57-11.48,47.14,3.74,4.74,6.9,9.95,10.51,15.23Zm8.81,295.55c1.67,.62,3.34,1.24,5,1.86,9.05-10.34,18.09-20.69,28.43-32.52-2.66,31.03-4.99,58.34-7.33,85.66,2.06,.29,4.12,.58,6.19,.87,7.11-38.07,5.01-79.28,35.66-108.79-11.69-8.06-23.12-15.94-35.62-24.55,2.45,7.37,4.73,14.19,5.53,16.62-13.76,22.12-25.81,41.48-37.86,60.85Zm-250.24,.8c14.43,40.2,27.42,76.38,40.4,112.56,2.42-.93,4.83-1.86,7.25-2.8-22.89-32.76-7.05-80.68-47.65-109.76Zm141.29-347.97c-7.85-17.93-15.69-35.86-24.43-55.83-7.34,26.81,10.08,40.67,24.43,55.83Z"/>
      <path class="cls-1" d="M714.28,197.4c-12.85,5.36-25.61,13.25-38.82,.58-2.64-2.53-5.91-4.41-8.89-6.59,4.52-2.29,9.04-4.57,13.56-6.86,7.36,.5,15.14-.26,21.95,1.94,4.75,1.53,8.18,7.14,12.19,10.93Z"/>
    </g>
  </g>
</svg>