<?xml version="1.0" standalone="no"?>
<!DOCTYPE svg PUBLIC "-//W3C//DTD SVG 20010904//EN"
 "http://www.w3.org/TR/2001/REC-SVG-20010904/DTD/svg10.dtd">
<svg version="1.0" xmlns="http://www.w3.org/2000/svg"
 width="300.000000pt" height="180.000000pt" viewBox="0 0 300.000000 180.000000"
 preserveAspectRatio="xMidYMid meet">
<metadata>
Created by potrace 1.10, written by Peter Selinger 2001-2011
</metadata>
<g transform="translate(0.000000,180.000000) scale(0.100000,-0.100000)"
fill="#000000" stroke="none">
<path d="M1231 1129 c-30 -28 -65 -55 -78 -60 -13 -5 -31 -25 -39 -45 -10 -24
-26 -40 -49 -50 -45 -19 -85 -78 -85 -126 0 -21 -7 -52 -16 -70 -12 -25 -13
-39 -5 -61 9 -23 16 -27 51 -27 38 0 40 2 34 24 -4 17 3 39 21 70 29 49 29 49
60 36 17 -7 17 -9 3 -9 -10 -1 -18 -9 -18 -18 0 -54 57 -118 89 -99 11 7 -2
60 -20 82 -16 20 -28 90 -18 106 6 8 9 -2 9 -28 0 -22 7 -49 16 -60 15 -19 15
-19 11 1 -3 11 -8 29 -12 40 -7 18 -6 18 7 5 19 -18 34 -75 18 -65 -7 5 -8 -2
-3 -22 4 -15 7 -38 8 -51 0 -13 5 -20 13 -17 6 2 12 0 12 -6 0 -6 10 -9 23 -7
14 2 20 9 18 18 -3 8 -4 43 -5 78 0 55 3 65 25 80 13 9 24 14 25 12 0 -3 8 1
18 9 24 20 27 11 11 -34 -10 -27 -14 -33 -15 -18 0 12 -4 25 -10 28 -13 8 -13
-34 1 -74 9 -24 9 -35 0 -44 -16 -16 -14 -30 4 -23 11 4 15 0 13 -12 -2 -12 4
-17 23 -18 25 -1 27 3 34 55 4 31 7 109 8 174 0 101 -2 120 -17 135 -17 16
-18 16 -8 -3 5 -11 12 -45 16 -75 l6 -55 -14 37 c-8 20 -17 61 -21 91 -7 51
-9 55 -36 59 -16 3 -30 0 -32 -6 -2 -5 -6 -2 -10 8 -6 15 -2 16 40 10 50 -7
50 -8 11 49 -28 39 -55 33 -117 -24z m20 -27 c-6 -12 -21 -24 -32 -27 -17 -6
-19 -9 -8 -17 10 -7 9 -8 -7 -4 -26 8 -50 -12 -58 -47 -6 -23 -3 -30 14 -34
22 -6 23 -9 10 -38 -7 -15 -9 -16 -9 -4 -1 9 -8 22 -16 29 -13 10 -15 9 -15
-9 0 -12 5 -32 11 -43 8 -15 8 -19 0 -14 -6 4 -11 2 -11 -3 0 -20 -39 -11 -54
11 -16 22 -16 21 -14 -18 1 -29 -6 -51 -21 -73 -26 -36 -36 -40 -28 -10 3 11
1 34 -5 50 -9 25 -6 35 16 69 14 22 34 40 44 40 26 1 48 22 56 52 6 25 70 78
93 78 5 0 14 9 21 21 17 26 28 18 13 -9z m109 -42 c0 -5 -6 -10 -12 -11 -10 0
-10 -2 0 -6 19 -8 14 -33 -7 -33 -25 0 -38 20 -20 31 10 6 11 9 2 9 -7 0 -13
5 -13 10 0 6 11 10 25 10 14 0 25 -4 25 -10z m-100 -75 c0 -7 6 -15 14 -18 8
-3 13 -17 11 -36 -2 -26 0 -29 12 -20 7 7 12 17 10 24 -3 6 5 21 17 33 l23 21
1 -36 c2 -38 -20 -73 -45 -73 -7 0 -12 -5 -10 -11 5 -24 -21 -18 -27 6 -4 14
-10 24 -15 21 -4 -3 -7 14 -7 37 1 29 -3 41 -12 39 -10 -2 -10 2 0 17 13 21
28 19 28 -4z m-50 -84 c0 -11 5 -23 10 -26 6 -3 10 -13 10 -22 0 -13 -3 -13
-16 -3 -21 19 -36 49 -29 60 10 17 25 11 25 -9z"/>
<path d="M1736 1069 c-39 -46 -60 -165 -33 -188 17 -14 27 -4 27 25 0 21 4 23
33 18 17 -3 45 -15 60 -26 27 -19 30 -19 48 -3 10 10 16 21 14 26 -3 4 -1 10
5 14 5 3 10 -3 10 -15 0 -45 54 -32 65 16 3 10 8 34 13 53 4 19 14 37 21 39
10 3 12 0 7 -14 -4 -11 -10 -42 -13 -70 -5 -42 -2 -52 11 -57 20 -8 44 3 70
32 25 27 17 34 -18 16 -35 -18 -36 -18 -36 -1 0 8 19 26 43 40 l42 25 -38 1
c-47 0 -46 23 2 30 17 3 32 10 31 15 0 12 -77 13 -102 1 -13 -6 -16 -3 -11 16
9 43 -16 -3 -32 -59 -20 -68 -34 -75 -28 -15 l5 47 -32 -47 c-18 -27 -36 -48
-40 -48 -4 0 0 20 9 45 12 35 13 47 4 56 -10 10 -17 3 -32 -32 -12 -24 -21
-55 -21 -69 -1 -22 -2 -23 -11 -7 -5 9 -19 17 -29 17 -34 0 -30 16 14 57 24
22 45 50 49 62 l5 21 -27 -20 c-16 -10 -40 -35 -56 -55 -30 -40 -46 -41 -20
-2 9 14 15 37 13 52 l-3 26 -19 -22z"/>
<path d="M1555 1070 c-3 -5 -14 -10 -24 -10 -18 0 -71 -59 -71 -78 0 -6 12
-20 28 -32 17 -14 23 -23 15 -26 -25 -11 -58 -42 -51 -49 18 -18 98 35 98 65
0 9 -10 24 -22 33 l-23 15 33 46 c18 25 31 46 28 46 -3 0 -8 -4 -11 -10z"/>
<path d="M1605 1043 c-40 -39 -49 -135 -15 -153 12 -6 30 -8 41 -5 45 15 68
144 30 165 -27 14 -37 13 -56 -7z m43 -40 c4 -25 -23 -83 -38 -83 -6 0 -9 24
-8 55 2 50 5 56 23 53 12 -2 21 -12 23 -25z"/>
<path d="M1571 841 c-8 -5 -9 -10 -3 -12 8 -3 8 -17 2 -43 -9 -41 -4 -70 11
-60 5 3 9 16 9 28 0 15 7 26 20 29 17 4 20 0 20 -23 0 -16 5 -32 10 -35 6 -4
10 6 10 22 0 16 7 38 16 49 14 18 15 16 9 -28 -4 -28 -2 -49 5 -53 11 -7 13
-3 26 59 5 22 14 41 21 43 9 3 9 -5 1 -31 -8 -26 -8 -42 0 -58 10 -22 11 -21
11 9 1 40 17 51 25 18 10 -38 23 -30 30 20 4 25 11 45 16 45 6 0 7 -19 4 -44
-8 -53 9 -68 40 -36 l21 22 -22 -7 c-13 -3 -23 -2 -23 3 0 5 10 17 23 25 18
13 19 16 5 16 -25 1 -23 21 2 21 11 0 20 5 20 11 0 8 -12 10 -35 6 -19 -3 -35
-2 -35 4 0 22 -20 6 -29 -23 -9 -33 -9 -33 -10 -5 -1 28 -2 28 -57 25 -41 -2
-60 -8 -68 -20 -12 -20 -50 -25 -44 -5 3 6 14 13 26 15 12 2 22 8 22 13 0 11
-60 12 -79 0z"/>
<path d="M1967 829 c-31 -23 -34 -41 -11 -60 14 -11 13 -15 -8 -31 -22 -17
-22 -18 -2 -18 11 0 29 9 39 20 17 19 17 21 0 40 -17 19 -17 21 0 40 26 28 13
34 -18 9z"/>
<path d="M1894 815 c-15 -24 -15 -27 0 -44 16 -17 15 -19 -6 -33 -14 -9 -18
-17 -11 -21 7 -4 24 4 40 17 27 24 28 24 9 45 -18 20 -18 22 -1 41 16 18 16
20 2 20 -9 0 -24 -11 -33 -25z"/>
<path d="M835 690 c-4 -6 13 -10 45 -10 32 0 49 4 45 10 -3 6 -24 10 -45 10
-21 0 -42 -4 -45 -10z"/>
<path d="M1440 690 c0 -6 27 -10 63 -10 44 0 58 3 47 10 -20 13 -110 13 -110
0z"/>
</g>
</svg>
