<?xml version="1.0" encoding="UTF-8"?>
<svg id="Layer_2" data-name="Layer 2" xmlns="http://www.w3.org/2000/svg" viewBox="0 0 247.01 270.66">
  <defs>
    <style>
      .cls-1 {
        fill: #fff;
      }
    </style>
  </defs>
  <g id="Layer_1-2" data-name="Layer 1">
    <g>
      <path class="cls-1" d="M110.2,160.92c-1.22,4.25-3.88,8.6-.4,13.59,.8,1.15,.48,3.21,.35,4.83-1.05,13.23,3.05,24.83,10.74,35.45,6.62,9.15,12.54,18.65,11.55,31.26-1.12,.51-2.7,1.22-4.36,1.97,.25,.44,.35,.86,.56,.94,2.1,.79,4.54,1.12,6.23,2.42,1.14,.88,1.93,3.27,1.61,4.69-.3,1.31-2.3,3.17-3.55,3.18-8.69,.05-17.4-.04-26.06-.67-5.97-.43-8.67-4.18-9.55-10.28-.65-4.49-2.19-9.68-5.16-12.85-6.67-7.11-9.64-15.14-10.3-24.58-.37-5.31-1.54-10.57-2.43-16.4h12.68c0-.19-.02-.37-.02-.56-6.15-1.5-12.31-3-17.95-4.38-4.01,4.61-7.78,8.94-11.55,13.29-.54,.62-1.15,1.23-1.51,1.95-4.97,9.85-9.88,19.72-14.84,29.58-4.29,8.52-3.5,13.28,3.4,20.35,.7,.72,1.25,1.59,1.84,2.35q-3.73,4.28-14.8-5.23c.71,1.44,.98,1.93,1.19,2.44,.96,2.38,1.9,4.76,2.85,7.15-2.4,.86-4.78,2.38-7.2,2.45-5.15,.16-10.36-.08-15.47-.78-9.34-1.28-15.67-7.81-17.14-17.08-2.31-14.64-.47-28.09,8.55-40.71,3.7-5.17,4.79-12.52,5.96-19.08,.93-5.22,.1-10.74,.22-16.13,.06-2.89-.34-6.18,.88-8.57,6.69-13.1,12.97-26.56,21.21-38.65,3.24-4.76,10.91-7.71,17.09-9.03,15.66-3.34,25.21-11.89,29.47-27.39,3.75-13.66,12.99-22.02,26.51-27.31,9.64-3.77,18.94-9.86,26.58-16.9,10.55-9.72,19.48-21.21,28.93-32.09,13.58-15.63,34.44-12.71,42.83,5.65-4.84,.22-9.9,.45-14.97,.68,.03,.49,.07,.98,.1,1.48,3.56,0,7.19-.39,10.67,.13,2.54,.38,5.96,1.27,7.17,3.12,4.57,6.99,8.44,14.45,12.43,21.81,.39,.71-.21,1.95-.17,1.65-3.85-.49-7.32-.97-10.8-1.36-4.83-.55-9.71-.83-14.5-1.62-2.18-.36-4.17-1.81-6.32-2.51-5.07-1.65-10.35,.26-11.12,3.88-1.04,4.94,3.12,10.18,9.1,10.92-.94-1.32-1.85-2.33-2.45-3.49-.83-1.61-1.43-3.33-2.13-5.01,2.09-.29,4.89-1.57,6.15-.68,4.6,3.23,9.39,2.06,14.29,1.98,4.14-.07,8.35,.5,12.39,1.41,.48,.11,.07,4.17,.07,6.11,.87,1.03,3.02,2.39,3.07,3.84,.33,8.34,.16,16.7,.16,24.87,.27-.49,.99-1.78,2.15-3.87,5.7,10.81,5.26,20.82,2.69,31.53,1.2-.52,2.01-.86,2.97-1.27,3.34,12.42,6.68,24.81,10.02,37.21,.5-.03,1-.06,1.49-.08-.81-9.75-1.61-19.49-2.42-29.24-.55,0-1.11,.01-1.67,.02-.32,1.45-.64,2.9-.96,4.34-.47,.02-.94,.04-1.41,.06-.52-5.05-1.79-10.15-1.44-15.14,1.42-19.86,1.6-19.84-7.82-35.41,8.28,2.86,13.9,11.54,14.96,21.39,1.03,9.59,2.43,19.21,4.59,28.6,2.74,11.88,1.55,23.29-1.01,35-1.37,6.25-2.02,13.34-.46,19.4,4.29,16.68,2.86,32.46-4.65,47.68-5.11,10.35-6.34,20.81-3.1,31.86,.52,1.77,.84,3.64,.99,5.49,.62,7.51-1.57,9.41-9.65,8.31-.13-2.17-.25-4.38-.42-6.59-.03-.39-.26-.77-.13-.41-1.32,2.43-2.21,6.61-4.61,7.84-2.74,1.41-7.27,1.17-10.19-.17-2.32-1.07-4.07-4.71-4.71-7.52-.28-1.22,2.85-3.22,5.04-5.5-1.98-3.78-6.25-2.69-10.53-1.62-4.38,1.09-8.63,1.69-11.04-3.33,.18-.44,.21-.7,.35-.81,12.4-9.81,13.78-14.78,8.43-30.31-1.61-4.69-3.23-9.39-4.81-14.09-3.43-10.17-3.38-20.3,.15-30.46,.91-2.62,1.3-5.43,2.33-9.88-2.51,1.95-3.5,2.78-4.55,3.53-5.62,4.06-11.02,8.51-16.99,11.97-3.04,1.76-4.68,3.04-4.67,6.82,.01,6.4-.19,12.9-1.3,19.18-3.07,17.39-.3,34.17,3.95,50.95,2.25,8.91-.87,12.34-9.71,11.52-.68-.06-1.41,.29-2.09,.24-3.65-.27-7.69,.2-10.75-1.31-1.2-.59-.2-5.65-.2-8.48-1.07,1.42-2.31,3.74-4.17,5.34-1.76,1.51-4.14,3.03-6.3,3.12-1.85,.08-4.41-1.45-5.46-3.05-.67-1.03,.89-3.46,1.35-5.29,.71-2.8,2.17-5.72,1.82-8.4-.66-5.07-1.82-10.22-3.77-14.93-3.21-7.75-6.53-15.6-11.01-22.64-7.38-11.61-13.13-23.09-10.68-37.63,.85-5.04-1.7-10.65-2.7-16.04ZM213.92,59.12c-1.2-1.13-2.23-2.81-3.65-3.27-2.04-.66-4.37-.43-6.57-.58-1.45-.5-4.04-1.63-4.17-1.4-1.06,1.9-1.65,4.06-2.48,6.39-6.17,.17-9.26,5.7-5.87,12.52,8.3-3.92,16.86-6.61,26.75,1.43-.95-5.01-1.39-7.97-2.11-10.85-.37-1.48-1.25-2.83-1.9-4.23ZM22.13,187.94c2.01-7.03,3.74-13.06,5.46-19.1,3.28,8.67-3.1,19.51,9.85,24.22-5.92,4.36-9.28,9.67-6.68,16.7,.8,2.16,3.52,3.61,5.35,5.38,.14-.25,.27-.51,.41-.76-1.44-2.92-2.89-5.84-3.88-7.84,4.53-1.04,8.53-.95,10.89-2.88,1.41-1.15,.26-5.44,.26-9.38,13.59-8.98,17.35-22.42,11.77-39.11-1.73-5.18-1.82-10.6,1.93-15.74,1.4,5.42,2.67,10.29,3.93,15.16,.4-.12,.81-.24,1.21-.35,.16-2.14,.33-4.28,.58-7.6,1.67,2.71,2.65,4.46,3.79,6.1,3.82,5.43,9.09,8.41,15.72,8.69,6.14,.25,8.31-1.97,8.11-8.12-.12-3.77-.48-7.53-.8-12.43,3.55,4.26,6.18,7.43,8.82,10.61,.57-.26,1.13-.52,1.7-.77-10.93-12.76-3.91-28.54-9.28-43.05,4.85,4.1,8.5,7.73,12.7,10.56,2.86,1.93,4.05,3.67,4.24,7.29,.2,3.86,2.24,7.63,3.48,11.44,.54-.05,1.07-.09,1.61-.14-2.25-7.81-.22-14.5,6.37-20.74-11.41,.5-18.73-3.32-23.01-12.1-3.61-7.4-4.12-14.86,.03-22.55,1.63,4.86,3.1,9.21,4.56,13.57-.94-20.27,13.39-33.75,37.34-27.22-3.06-1.89-6.11-3.78-10.52-6.52,5.98-2.34,10.77-4.74,15.85-6.08,7.35-1.94,11.51-6.42,13.85-13.46,.81-2.44,3.26-4.33,4.89-6.38-.17-.04-1.51-.34-2.85-.65,.1-1.43,.2-2.85,.3-4.28-.5-.35-1.01-.71-1.51-1.06-3.98,3.63-7.97,7.26-12.7,11.58,2.77,.73,3.72,.98,4.67,1.23,.1,.53,.2,1.06,.3,1.59-4.03,1.89-8.02,3.86-12.1,5.64-4.72,2.07-9.63,3.73-14.2,6.08-1.46,.75-2.06,3.14-3.58,5.64-26.58,5.12-34.59,24.43-34.53,50.02-1.04-2.34-2.07-4.67-3.12-7-11.12,9.82-11.25,9.44-27.71,14.83-5.67,1.86-10.6,6.06-15.76,9.36-.93,.59-2.02,2.82-1.88,2.94,3.79,3.24,.07,5.34-1.48,6.85-13.9,13.62-16.21,30.56-14.36,49.85Zm122.28-76.12c-.24-.32-.11-.16,0,.01,1.78-1.51,3.55-3.03,6.02-5.13,2.05,4.13,4.1,7.67,5.61,11.43,5.04,12.58-1.51,24.21-2.97,36.39,1.23-2.28,2.46-4.56,4.22-7.82,4.93,10.36,9.49,19.94,14.47,30.39,3.04-2.5,6.67-4.21,8.02-7.01,1.13-2.34-.4-5.97-.75-9.03,20.95-1.46,32.26-14.26,28.96-43.6-1.72,.51-3.38,1.01-4.95,1.48,1.65-4.54,3.21-8.85,4.77-13.15-.51-.22-1.02-.44-1.52-.66-2.63,2.21-5.27,4.42-9.07,7.61,2.96-.61,4.46-.91,6.31-1.29-3.61,9.17-18.33,6.05-18.72,18.45,2.83-.3,5.25-.56,8.99-.97-3.4,2.48-5.64,4.12-8.6,6.28,3.12,.4,5.25,.67,6.89,.88-5.45,4.66-10.9,9.32-16.34,13.98-.57-.2-1.13-.4-1.7-.6,6.6-7.07,4.27-11.8-2.86-15.57,2.3,.22,4.6,.44,8.37,.8-3.91-4.5-6.9-7.95-10.87-12.52,3.95,1.76,6.55,2.91,9.15,4.07,.38-.55,.76-1.09,1.15-1.64-3.61-3.17-7.25-6.3-10.81-9.52-3.18-2.87-8.99-5.94-8.88-8.74,.25-6.29-4.39-8.91-5.96-12.93-2.93,6.03-5.88,12.09-8.96,18.41Zm51.84-19.1c2.14-.39,3.91-.7,5.69-1.03,1.55-.3,3.09-.67,4.65-.93,5.86-.97,9.91-5.02,9.44-9.97-.56-5.82-4.78-7.97-9.88-8.17-3.19-.13-6.65,.27-9.6,1.43-6.92,2.72-8.06,8.26-3.44,14.12,1.12,1.42,2.07,2.98,3.15,4.56Zm2.64,88.51c.5,.19,1,.37,1.5,.56,2.71-3.1,5.42-6.2,8.52-9.74-.8,9.29-1.5,17.47-2.2,25.65,.62,.09,1.24,.17,1.85,.26,2.13-11.4,1.5-23.74,10.68-32.58-3.5-2.41-6.92-4.77-10.67-7.35,.73,2.21,1.42,4.25,1.66,4.98-4.12,6.62-7.73,12.42-11.34,18.22Zm-74.94,.24c4.32,12.04,8.21,22.87,12.1,33.71,.72-.28,1.45-.56,2.17-.84-6.86-9.81-2.11-24.16-14.27-32.87Zm42.31-104.21c-2.35-5.37-4.7-10.74-7.32-16.72-2.2,8.03,3.02,12.18,7.32,16.72Z"/>
      <path class="cls-1" d="M213.92,59.12c-3.85,1.61-7.67,3.97-11.63,.17-.79-.76-1.77-1.32-2.66-1.97,1.35-.68,2.71-1.37,4.06-2.05,2.21,.15,4.53-.08,6.57,.58,1.42,.46,2.45,2.14,3.65,3.27Z"/>
    </g>
  </g>
</svg>